<mxfile host="app.diagrams.net" modified="2024-07-22T14:41:03.289Z" agent="Mozilla/5.0 (Windows NT 10.0; Win64; x64) AppleWebKit/537.36 (KHTML, like Gecko) Chrome/126.0.0.0 Safari/537.36" etag="bcTltIPH-yJEgvyBqwUt" version="24.6.4" type="device">
  <diagram name="Página-1" id="qAytqxwMEcGFVck5Y3Dr">
    <mxGraphModel dx="1434" dy="746" grid="1" gridSize="10" guides="1" tooltips="1" connect="1" arrows="1" fold="1" page="1" pageScale="1" pageWidth="827" pageHeight="1169" math="0" shadow="0">
      <root>
        <mxCell id="0" />
        <mxCell id="1" parent="0" />
        <mxCell id="wKXUdBszHPAhBZsl0d1U-13" style="edgeStyle=orthogonalEdgeStyle;rounded=0;orthogonalLoop=1;jettySize=auto;html=1;entryX=0.5;entryY=0;entryDx=0;entryDy=0;" parent="1" source="wKXUdBszHPAhBZsl0d1U-1" target="wKXUdBszHPAhBZsl0d1U-9" edge="1">
          <mxGeometry relative="1" as="geometry" />
        </mxCell>
        <mxCell id="wKXUdBszHPAhBZsl0d1U-1" value="Usuario" style="swimlane;fontStyle=1;align=center;verticalAlign=top;childLayout=stackLayout;horizontal=1;startSize=26;horizontalStack=0;resizeParent=1;resizeParentMax=0;resizeLast=0;collapsible=1;marginBottom=0;whiteSpace=wrap;html=1;" parent="1" vertex="1">
          <mxGeometry x="350" y="114" width="340" height="154" as="geometry" />
        </mxCell>
        <mxCell id="wKXUdBszHPAhBZsl0d1U-2" value="- nombre, apellido, email, contraseña, nroDocumento: String&lt;div&gt;- documento: Documento&lt;/div&gt;&lt;div&gt;- notificacion: Notificacion&lt;/div&gt;&lt;div&gt;- telefono: number&lt;/div&gt;&lt;div&gt;- mascotas: Mascota[]&lt;/div&gt;&lt;div&gt;-rol: Rol&lt;/div&gt;" style="text;strokeColor=none;fillColor=none;align=left;verticalAlign=top;spacingLeft=4;spacingRight=4;overflow=hidden;rotatable=0;points=[[0,0.5],[1,0.5]];portConstraint=eastwest;whiteSpace=wrap;html=1;" parent="wKXUdBszHPAhBZsl0d1U-1" vertex="1">
          <mxGeometry y="26" width="340" height="94" as="geometry" />
        </mxCell>
        <mxCell id="wKXUdBszHPAhBZsl0d1U-3" value="" style="line;strokeWidth=1;fillColor=none;align=left;verticalAlign=middle;spacingTop=-1;spacingLeft=3;spacingRight=3;rotatable=0;labelPosition=right;points=[];portConstraint=eastwest;strokeColor=inherit;" parent="wKXUdBszHPAhBZsl0d1U-1" vertex="1">
          <mxGeometry y="120" width="340" height="8" as="geometry" />
        </mxCell>
        <mxCell id="wKXUdBszHPAhBZsl0d1U-4" value="+ registrarMacota(): Mascota" style="text;strokeColor=none;fillColor=none;align=left;verticalAlign=top;spacingLeft=4;spacingRight=4;overflow=hidden;rotatable=0;points=[[0,0.5],[1,0.5]];portConstraint=eastwest;whiteSpace=wrap;html=1;" parent="wKXUdBszHPAhBZsl0d1U-1" vertex="1">
          <mxGeometry y="128" width="340" height="26" as="geometry" />
        </mxCell>
        <mxCell id="wKXUdBszHPAhBZsl0d1U-14" style="edgeStyle=orthogonalEdgeStyle;rounded=0;orthogonalLoop=1;jettySize=auto;html=1;endArrow=block;endFill=0;endSize=13;" parent="1" source="wKXUdBszHPAhBZsl0d1U-5" target="wKXUdBszHPAhBZsl0d1U-2" edge="1">
          <mxGeometry relative="1" as="geometry" />
        </mxCell>
        <mxCell id="wKXUdBszHPAhBZsl0d1U-5" value="UsuarioAdministrador" style="swimlane;fontStyle=1;align=center;verticalAlign=top;childLayout=stackLayout;horizontal=1;startSize=26;horizontalStack=0;resizeParent=1;resizeParentMax=0;resizeLast=0;collapsible=1;marginBottom=0;whiteSpace=wrap;html=1;" parent="1" vertex="1">
          <mxGeometry x="780" y="110" width="340" height="154" as="geometry" />
        </mxCell>
        <mxCell id="wKXUdBszHPAhBZsl0d1U-6" value="- nombre, apellido, email, contraseña, documento: String&lt;div&gt;- documento: Documento&lt;/div&gt;&lt;div&gt;- notificacion: Notificacion&lt;/div&gt;&lt;div&gt;- telefono: number&lt;/div&gt;&lt;div&gt;- mascotas: Mascota[]&lt;/div&gt;&lt;div&gt;-rol: Rol&lt;/div&gt;" style="text;strokeColor=none;fillColor=none;align=left;verticalAlign=top;spacingLeft=4;spacingRight=4;overflow=hidden;rotatable=0;points=[[0,0.5],[1,0.5]];portConstraint=eastwest;whiteSpace=wrap;html=1;" parent="wKXUdBszHPAhBZsl0d1U-5" vertex="1">
          <mxGeometry y="26" width="340" height="94" as="geometry" />
        </mxCell>
        <mxCell id="wKXUdBszHPAhBZsl0d1U-7" value="" style="line;strokeWidth=1;fillColor=none;align=left;verticalAlign=middle;spacingTop=-1;spacingLeft=3;spacingRight=3;rotatable=0;labelPosition=right;points=[];portConstraint=eastwest;strokeColor=inherit;" parent="wKXUdBszHPAhBZsl0d1U-5" vertex="1">
          <mxGeometry y="120" width="340" height="8" as="geometry" />
        </mxCell>
        <mxCell id="wKXUdBszHPAhBZsl0d1U-8" value="+ registrarMacota(): Mascota" style="text;strokeColor=none;fillColor=none;align=left;verticalAlign=top;spacingLeft=4;spacingRight=4;overflow=hidden;rotatable=0;points=[[0,0.5],[1,0.5]];portConstraint=eastwest;whiteSpace=wrap;html=1;" parent="wKXUdBszHPAhBZsl0d1U-5" vertex="1">
          <mxGeometry y="128" width="340" height="26" as="geometry" />
        </mxCell>
        <mxCell id="wKXUdBszHPAhBZsl0d1U-9" value="Mascota" style="swimlane;fontStyle=1;align=center;verticalAlign=top;childLayout=stackLayout;horizontal=1;startSize=26;horizontalStack=0;resizeParent=1;resizeParentMax=0;resizeLast=0;collapsible=1;marginBottom=0;whiteSpace=wrap;html=1;" parent="1" vertex="1">
          <mxGeometry x="350" y="354" width="340" height="78" as="geometry" />
        </mxCell>
        <mxCell id="wKXUdBszHPAhBZsl0d1U-10" value="- tipoAnimal: TipoAnimal&lt;div&gt;- nombre, apodo, descripcionFisica, foto, descripcion: String&lt;/div&gt;" style="text;strokeColor=none;fillColor=none;align=left;verticalAlign=top;spacingLeft=4;spacingRight=4;overflow=hidden;rotatable=0;points=[[0,0.5],[1,0.5]];portConstraint=eastwest;whiteSpace=wrap;html=1;" parent="wKXUdBszHPAhBZsl0d1U-9" vertex="1">
          <mxGeometry y="26" width="340" height="44" as="geometry" />
        </mxCell>
        <mxCell id="wKXUdBszHPAhBZsl0d1U-11" value="" style="line;strokeWidth=1;fillColor=none;align=left;verticalAlign=middle;spacingTop=-1;spacingLeft=3;spacingRight=3;rotatable=0;labelPosition=right;points=[];portConstraint=eastwest;strokeColor=inherit;" parent="wKXUdBszHPAhBZsl0d1U-9" vertex="1">
          <mxGeometry y="70" width="340" height="8" as="geometry" />
        </mxCell>
        <mxCell id="wKXUdBszHPAhBZsl0d1U-15" value="Sistema" style="swimlane;fontStyle=1;align=center;verticalAlign=top;childLayout=stackLayout;horizontal=1;startSize=26;horizontalStack=0;resizeParent=1;resizeParentMax=0;resizeLast=0;collapsible=1;marginBottom=0;whiteSpace=wrap;html=1;" parent="1" vertex="1">
          <mxGeometry x="40" y="132" width="230" height="110" as="geometry" />
        </mxCell>
        <mxCell id="wKXUdBszHPAhBZsl0d1U-16" value="- usuarios: Usuario[]" style="text;strokeColor=none;fillColor=none;align=left;verticalAlign=top;spacingLeft=4;spacingRight=4;overflow=hidden;rotatable=0;points=[[0,0.5],[1,0.5]];portConstraint=eastwest;whiteSpace=wrap;html=1;" parent="wKXUdBszHPAhBZsl0d1U-15" vertex="1">
          <mxGeometry y="26" width="230" height="26" as="geometry" />
        </mxCell>
        <mxCell id="wKXUdBszHPAhBZsl0d1U-17" value="" style="line;strokeWidth=1;fillColor=none;align=left;verticalAlign=middle;spacingTop=-1;spacingLeft=3;spacingRight=3;rotatable=0;labelPosition=right;points=[];portConstraint=eastwest;strokeColor=inherit;" parent="wKXUdBszHPAhBZsl0d1U-15" vertex="1">
          <mxGeometry y="52" width="230" height="8" as="geometry" />
        </mxCell>
        <mxCell id="wKXUdBszHPAhBZsl0d1U-18" value="+ login(), signup(): Usuario&lt;div&gt;+ logout(): void&lt;/div&gt;&lt;div&gt;+ registrarMascota(Usuario): Mascota&lt;/div&gt;" style="text;strokeColor=none;fillColor=none;align=left;verticalAlign=top;spacingLeft=4;spacingRight=4;overflow=hidden;rotatable=0;points=[[0,0.5],[1,0.5]];portConstraint=eastwest;whiteSpace=wrap;html=1;" parent="wKXUdBszHPAhBZsl0d1U-15" vertex="1">
          <mxGeometry y="60" width="230" height="50" as="geometry" />
        </mxCell>
        <mxCell id="wKXUdBszHPAhBZsl0d1U-20" style="edgeStyle=orthogonalEdgeStyle;rounded=0;orthogonalLoop=1;jettySize=auto;html=1;entryX=0;entryY=0.5;entryDx=0;entryDy=0;" parent="1" source="wKXUdBszHPAhBZsl0d1U-15" target="wKXUdBszHPAhBZsl0d1U-2" edge="1">
          <mxGeometry relative="1" as="geometry" />
        </mxCell>
      </root>
    </mxGraphModel>
  </diagram>
</mxfile>
